<svg xmlns="http://www.w3.org/2000/svg" xmlns:xlink="http://www.w3.org/1999/xlink" width="500" zoomAndPan="magnify" viewBox="0 0 375 374.999991" height="500" preserveAspectRatio="xMidYMid meet" version="1.0"><defs><g/></defs><g fill="#000000" fill-opacity="1"><g transform="translate(32.2753, 217.825288)"><g><path d="M 83.109375 -10.515625 L 85.53125 -8.390625 C 84.375 -3.648438 81.773438 -0.722656 77.734375 0.390625 C 76.773438 0.660156 75.835938 0.796875 74.921875 0.796875 C 72.390625 0.796875 70.304688 0.160156 68.671875 -1.109375 C 67.046875 -2.378906 65.867188 -4.050781 65.140625 -6.125 C 64.421875 -8.195312 63.867188 -10.304688 63.484375 -12.453125 C 63.109375 -14.609375 62.691406 -16.832031 62.234375 -19.125 C 61.773438 -21.414062 61.179688 -23.132812 60.453125 -24.28125 C 58.941406 -23.71875 57.566406 -23.4375 56.328125 -23.4375 C 55.097656 -23.4375 53.8125 -23.816406 52.46875 -24.578125 C 50.09375 -20.003906 47.34375 -16 44.21875 -12.5625 C 41.09375 -9.125 37.898438 -6.453125 34.640625 -4.546875 C 28.222656 -0.753906 22.039062 1.140625 16.09375 1.140625 C 12.238281 1.140625 9.023438 0.441406 6.453125 -0.953125 C 3.890625 -2.359375 2.609375 -3.972656 2.609375 -5.796875 C 2.609375 -7.617188 3.125 -8.988281 4.15625 -9.90625 C 5.195312 -10.832031 6.359375 -11.296875 7.640625 -11.296875 C 8.929688 -11.296875 9.988281 -10.941406 10.8125 -10.234375 C 11.632812 -9.535156 12.046875 -8.554688 12.046875 -7.296875 C 12.046875 -6.046875 11.535156 -4.929688 10.515625 -3.953125 C 12.515625 -2.929688 14.734375 -2.421875 17.171875 -2.421875 C 21.117188 -2.421875 25.078125 -3.941406 29.046875 -6.984375 C 33.015625 -10.023438 36.421875 -13.816406 39.265625 -18.359375 C 42.109375 -22.898438 44.425781 -27.84375 46.21875 -33.1875 C 48.007812 -38.539062 48.90625 -43.015625 48.90625 -46.609375 C 48.90625 -50.210938 48.648438 -53.15625 48.140625 -55.4375 C 47.628906 -57.726562 46.847656 -59.8125 45.796875 -61.6875 C 43.597656 -65.632812 40.160156 -67.609375 35.484375 -67.609375 C 32.066406 -67.609375 28.710938 -66.84375 25.421875 -65.3125 C 22.128906 -63.789062 19.25 -61.769531 16.78125 -59.25 C 14.3125 -56.726562 12.328125 -53.71875 10.828125 -50.21875 C 9.335938 -46.71875 8.59375 -43.085938 8.59375 -39.328125 C 8.59375 -35.941406 9.132812 -33.117188 10.21875 -30.859375 C 11.300781 -28.609375 12.453125 -26.878906 13.671875 -25.671875 C 16.503906 -22.835938 20.4375 -21.421875 25.46875 -21.421875 C 25.988281 -21.421875 26.941406 -21.488281 28.328125 -21.625 L 29.3125 -19.296875 C 28.425781 -19.160156 26.75 -19.09375 24.28125 -19.09375 C 21.8125 -19.09375 19.269531 -19.59375 16.65625 -20.59375 C 14.039062 -21.601562 11.914062 -22.890625 10.28125 -24.453125 C 8.65625 -26.015625 7.300781 -27.832031 6.21875 -29.90625 C 4.238281 -33.625 3.25 -37.503906 3.25 -41.546875 C 3.25 -45.597656 4.019531 -49.425781 5.5625 -53.03125 C 7.113281 -56.632812 9.265625 -59.769531 12.015625 -62.4375 C 14.765625 -65.101562 18.171875 -67.222656 22.234375 -68.796875 C 26.296875 -70.378906 30.515625 -71.171875 34.890625 -71.171875 C 39.265625 -71.171875 42.941406 -70.535156 45.921875 -69.265625 C 48.898438 -68.003906 51.257812 -66.238281 53 -63.96875 C 56.363281 -59.59375 58.046875 -53.960938 58.046875 -47.078125 C 58.046875 -42.242188 57.1875 -37.160156 55.46875 -31.828125 C 57.21875 -31.828125 58.5625 -31.695312 59.5 -31.4375 C 60.4375 -31.175781 61.460938 -30.632812 62.578125 -29.8125 C 65.109375 -31.71875 67.195312 -35.5 68.84375 -41.15625 C 69.539062 -43.5 70.265625 -45.984375 71.015625 -48.609375 C 71.773438 -51.242188 72.664062 -53.742188 73.6875 -56.109375 C 74.707031 -58.484375 75.941406 -60.640625 77.390625 -62.578125 C 80.515625 -66.828125 85.101562 -68.953125 91.15625 -68.953125 C 92.738281 -68.953125 94.253906 -68.601562 95.703125 -67.90625 C 97.148438 -67.21875 97.875 -66.195312 97.875 -64.84375 C 97.875 -63.5 97.425781 -62.273438 96.53125 -61.171875 C 95.644531 -60.066406 94.644531 -59.515625 93.53125 -59.515625 C 92.4375 -60.210938 90.925781 -60.5625 89 -60.5625 C 87.082031 -60.5625 85.484375 -60.113281 84.203125 -59.21875 C 82.921875 -58.332031 81.945312 -57.113281 81.28125 -55.5625 C 80.625 -54.019531 80.082031 -52.285156 79.65625 -50.359375 C 79.226562 -48.441406 78.726562 -46.367188 78.15625 -44.140625 C 77.582031 -41.921875 76.863281 -39.773438 76 -37.703125 C 75.144531 -35.628906 73.820312 -33.585938 72.03125 -31.578125 C 70.238281 -29.578125 68.0625 -27.882812 65.5 -26.5 C 67.144531 -24.851562 68.820312 -22.566406 70.53125 -19.640625 C 72.238281 -16.710938 73.523438 -13.648438 74.390625 -10.453125 C 75.265625 -7.265625 76.445312 -5.671875 77.9375 -5.671875 C 78.65625 -5.671875 80.378906 -7.285156 83.109375 -10.515625 Z M 54.875 -29.3125 L 54 -27.390625 C 55.207031 -26.734375 56.15625 -26.40625 56.84375 -26.40625 C 57.539062 -26.40625 58.332031 -26.566406 59.21875 -26.890625 C 58.4375 -28.503906 56.988281 -29.3125 54.875 -29.3125 Z M 54.875 -29.3125 "/></g></g></g><g fill="#000000" fill-opacity="1"><g transform="translate(120.764836, 217.825288)"><g><path d="M 27.09375 -23.34375 C 25.84375 -23.34375 24.363281 -22.546875 22.65625 -20.953125 C 20.945312 -19.359375 19.285156 -17.410156 17.671875 -15.109375 C 15.097656 -11.421875 12.484375 -7.175781 9.828125 -2.375 L 8.484375 0 L 1.53125 0 C 1.53125 0 2.039062 -1.546875 3.0625 -4.640625 C 5.925781 -13.191406 7.359375 -18.265625 7.359375 -19.859375 C 7.359375 -21.460938 7.09375 -22.265625 6.5625 -22.265625 C 5.613281 -22.265625 4.476562 -21.128906 3.15625 -18.859375 C 2.863281 -18.328125 2.617188 -17.90625 2.421875 -17.59375 C 2.222656 -17.28125 2 -16.898438 1.75 -16.453125 C 1.5 -16.015625 1.34375 -15.742188 1.28125 -15.640625 L -2.03125 -17.5625 C 0.539062 -21.75 2.894531 -24.835938 5.03125 -26.828125 C 7.175781 -28.816406 9.363281 -29.8125 11.59375 -29.8125 C 12.613281 -29.8125 13.492188 -29.382812 14.234375 -28.53125 C 14.972656 -27.675781 15.34375 -26.660156 15.34375 -25.484375 C 15.34375 -24.316406 15.273438 -23.28125 15.140625 -22.375 C 15.015625 -21.476562 14.867188 -20.648438 14.703125 -19.890625 C 14.535156 -19.128906 14.304688 -18.222656 14.015625 -17.171875 C 13.722656 -16.117188 13.484375 -15.3125 13.296875 -14.75 C 13.117188 -14.195312 12.878906 -13.441406 12.578125 -12.484375 C 12.285156 -11.535156 12.109375 -10.976562 12.046875 -10.8125 C 12.640625 -11.988281 13.640625 -13.726562 15.046875 -16.03125 C 16.460938 -18.34375 17.382812 -19.789062 17.8125 -20.375 C 18.238281 -20.96875 18.832031 -21.757812 19.59375 -22.75 C 20.351562 -23.738281 21.019531 -24.503906 21.59375 -25.046875 C 22.164062 -25.585938 22.851562 -26.210938 23.65625 -26.921875 C 24.46875 -27.628906 25.234375 -28.164062 25.953125 -28.53125 C 27.796875 -29.382812 29.570312 -29.8125 31.28125 -29.8125 C 33 -29.8125 34.375 -29.304688 35.40625 -28.296875 C 36.445312 -27.296875 36.96875 -26.128906 36.96875 -24.796875 C 36.96875 -23.460938 36.546875 -22.296875 35.703125 -21.296875 C 34.867188 -20.296875 33.898438 -19.796875 32.796875 -19.796875 C 31.691406 -19.796875 30.828125 -19.984375 30.203125 -20.359375 C 29.578125 -20.734375 29.148438 -21.132812 28.921875 -21.5625 C 28.234375 -22.75 27.625 -23.34375 27.09375 -23.34375 Z M 27.09375 -23.34375 "/></g></g></g><g fill="#000000" fill-opacity="1"><g transform="translate(158.470354, 217.825288)"><g><path d="M 9.078125 -9.71875 C 9.273438 -5.9375 11.828125 -4.046875 16.734375 -4.046875 C 18.546875 -4.046875 20.425781 -4.5625 22.375 -5.59375 C 24.332031 -6.632812 25.921875 -7.863281 27.140625 -9.28125 L 29.265625 -7.890625 C 26.535156 -3.316406 22.175781 -0.519531 16.1875 0.5 C 14.875 0.695312 13.609375 0.796875 12.390625 0.796875 C 8.835938 0.796875 5.875 -0.378906 3.5 -2.734375 C 1.132812 -5.085938 -0.046875 -7.957031 -0.046875 -11.34375 C -0.046875 -14.738281 0.988281 -17.875 3.0625 -20.75 C 5.132812 -23.632812 7.722656 -25.863281 10.828125 -27.4375 C 13.941406 -29.019531 17.007812 -29.8125 20.03125 -29.8125 C 23.0625 -29.8125 25.6875 -29.117188 27.90625 -27.734375 C 30.125 -26.359375 31.257812 -24.5 31.3125 -22.15625 C 31.363281 -19.820312 30.679688 -17.804688 29.265625 -16.109375 C 27.847656 -14.421875 26.054688 -13.128906 23.890625 -12.234375 C 19.578125 -10.492188 15.347656 -9.625 11.203125 -9.625 Z M 8.78125 -12.4375 C 12.4375 -12.570312 15.375 -13.15625 17.59375 -14.1875 C 19.8125 -15.226562 21.359375 -16.410156 22.234375 -17.734375 C 23.109375 -19.066406 23.546875 -20.46875 23.546875 -21.9375 C 23.546875 -23.40625 23.164062 -24.488281 22.40625 -25.1875 C 21.644531 -25.894531 20.835938 -26.25 19.984375 -26.25 C 17.878906 -26.25 15.945312 -25.515625 14.1875 -24.046875 C 12.425781 -22.585938 11.082031 -20.8125 10.15625 -18.71875 C 9.238281 -16.632812 8.78125 -14.539062 8.78125 -12.4375 Z M 8.78125 -12.4375 "/></g></g></g><g fill="#000000" fill-opacity="1"><g transform="translate(193.313411, 217.825288)"><g><path d="M 13.421875 -13.875 C 20.296875 -24.5 26.46875 -29.8125 31.9375 -29.8125 C 33.78125 -29.8125 35.160156 -29.25 36.078125 -28.125 C 36.992188 -27.007812 37.453125 -25.597656 37.453125 -23.890625 C 37.453125 -22.179688 36.6875 -19.21875 35.15625 -15 C 33.632812 -10.789062 32.875 -8.179688 32.875 -7.171875 C 32.875 -6.171875 33.117188 -5.671875 33.609375 -5.671875 C 34.265625 -5.671875 35.234375 -6.351562 36.515625 -7.71875 C 37.804688 -9.082031 38.941406 -10.523438 39.921875 -12.046875 L 42 -10.0625 C 40.03125 -6.476562 37.867188 -3.769531 35.515625 -1.9375 C 33.160156 -0.113281 31.25 0.796875 29.78125 0.796875 C 28.320312 0.796875 27.179688 0.3125 26.359375 -0.65625 C 25.535156 -1.632812 25.125 -2.960938 25.125 -4.640625 C 25.125 -6.316406 25.789062 -9.054688 27.125 -12.859375 C 28.457031 -16.660156 29.125 -19.359375 29.125 -20.953125 C 29.125 -22.546875 28.578125 -23.34375 27.484375 -23.34375 C 26.234375 -23.34375 24.753906 -22.546875 23.046875 -20.953125 C 21.335938 -19.359375 19.675781 -17.410156 18.0625 -15.109375 C 15.5 -11.421875 12.882812 -7.175781 10.21875 -2.375 L 8.890625 0 L 1.921875 0 L 3.453125 -4.640625 C 6.316406 -13.191406 7.75 -18.265625 7.75 -19.859375 C 7.75 -21.460938 7.484375 -22.265625 6.953125 -22.265625 C 6.003906 -22.265625 4.867188 -21.128906 3.546875 -18.859375 C 3.253906 -18.328125 3.007812 -17.90625 2.8125 -17.59375 C 2.613281 -17.28125 2.390625 -16.898438 2.140625 -16.453125 C 1.898438 -16.015625 1.742188 -15.742188 1.671875 -15.640625 L -1.625 -17.5625 C 0.9375 -21.75 3.285156 -24.835938 5.421875 -26.828125 C 7.566406 -28.816406 9.757812 -29.8125 12 -29.8125 C 13.007812 -29.8125 13.882812 -29.382812 14.625 -28.53125 C 15.375 -27.675781 15.75 -26.640625 15.75 -25.421875 C 15.75 -24.203125 15.648438 -23.007812 15.453125 -21.84375 C 15.253906 -20.675781 15.046875 -19.703125 14.828125 -18.921875 C 14.617188 -18.148438 14.335938 -17.15625 13.984375 -15.9375 C 13.640625 -14.71875 13.453125 -14.03125 13.421875 -13.875 Z M 13.421875 -13.875 "/></g></g></g><g fill="#000000" fill-opacity="1"><g transform="translate(237.928319, 217.825288)"><g><path d="M 27.296875 -28.71875 L 35 -28.71875 L 31.09375 -13.96875 C 30.46875 -11.894531 30.15625 -10.007812 30.15625 -8.3125 C 30.15625 -6.625 30.453125 -5.78125 31.046875 -5.78125 C 31.640625 -5.78125 32.453125 -6.296875 33.484375 -7.328125 C 34.523438 -8.367188 35.40625 -9.414062 36.125 -10.46875 L 37.265625 -12.046875 L 39.390625 -10.0625 C 38.296875 -7.957031 36.910156 -6.035156 35.234375 -4.296875 C 31.984375 -0.898438 29.15625 0.796875 26.75 0.796875 C 23.914062 0.796875 22.5 -1.394531 22.5 -5.78125 C 22.5 -6.5 22.535156 -7.039062 22.609375 -7.40625 C 22.109375 -5.726562 21.171875 -4.25 19.796875 -2.96875 C 17.160156 -0.457031 14.1875 0.796875 10.875 0.796875 C 7.570312 0.796875 4.925781 -0.328125 2.9375 -2.578125 C 0.945312 -4.835938 -0.046875 -7.664062 -0.046875 -11.0625 C -0.046875 -16.320312 1.660156 -20.757812 5.078125 -24.375 C 8.503906 -28 12.519531 -29.8125 17.125 -29.8125 C 19.425781 -29.8125 21.332031 -29.175781 22.84375 -27.90625 C 24.363281 -26.644531 25.351562 -24.992188 25.8125 -22.953125 Z M 19.046875 -25.5625 C 17.140625 -25.5625 15.351562 -24.765625 13.6875 -23.171875 C 12.03125 -21.578125 10.753906 -19.648438 9.859375 -17.390625 C 8.972656 -15.140625 8.53125 -12.941406 8.53125 -10.796875 C 8.53125 -8.660156 9 -6.9375 9.9375 -5.625 C 10.875 -4.3125 12.320312 -3.65625 14.28125 -3.65625 C 16.238281 -3.65625 18.007812 -4.539062 19.59375 -6.3125 C 22.582031 -9.738281 24.078125 -13.800781 24.078125 -18.5 C 24.078125 -23.207031 22.398438 -25.5625 19.046875 -25.5625 Z M 19.046875 -25.5625 "/></g></g></g><g fill="#000000" fill-opacity="1"><g transform="translate(279.927543, 217.825288)"><g><path d="M 61.84375 -60.453125 C 57.4375 -64.765625 52.550781 -66.921875 47.1875 -66.921875 C 36.914062 -66.921875 28.523438 -61.988281 22.015625 -52.125 C 18.234375 -46.394531 16.34375 -40.304688 16.34375 -33.859375 C 16.34375 -28.722656 17.625 -24.507812 20.1875 -21.21875 C 22.945312 -17.632812 27.125 -15.84375 32.71875 -15.84375 C 37.125 -15.84375 41.398438 -17.234375 45.546875 -20.015625 C 49.691406 -22.796875 52.738281 -26.472656 54.6875 -31.046875 L 61.84375 -31.140625 C 58.519531 -15.972656 52.671875 -4.144531 44.296875 4.34375 C 35.921875 12.832031 25.941406 17.078125 14.359375 17.078125 C 8.335938 17.078125 3.695312 15.84375 0.4375 13.375 C -2.8125 10.90625 -4.4375 7.953125 -4.4375 4.515625 C -4.4375 1.078125 -2.8125 -1.914062 0.4375 -4.46875 C 3.695312 -7.019531 8.15625 -8.296875 13.8125 -8.296875 C 19.445312 -8.296875 23.90625 -7.007812 27.1875 -4.4375 L 25.078125 -0.09375 C 22.046875 -1.382812 18.472656 -2.03125 14.359375 -2.03125 C 10.242188 -2.03125 6.820312 -1.347656 4.09375 0.015625 C 1.363281 1.390625 0 3.078125 0 5.078125 C 0 7.085938 1.320312 8.800781 3.96875 10.21875 C 6.625 11.632812 10.351562 12.34375 15.15625 12.34375 C 22.820312 12.34375 29.800781 9.335938 36.09375 3.328125 C 42.394531 -2.671875 47.769531 -11.476562 52.21875 -23.09375 C 49.488281 -19.25 46.164062 -16.304688 42.25 -14.265625 C 38.332031 -12.222656 34.554688 -11.203125 30.921875 -11.203125 C 27.285156 -11.203125 24.078125 -11.671875 21.296875 -12.609375 C 18.515625 -13.546875 16.03125 -14.894531 13.84375 -16.65625 C 11.65625 -18.414062 9.910156 -20.71875 8.609375 -23.5625 C 7.304688 -26.414062 6.65625 -29.617188 6.65625 -33.171875 C 6.65625 -36.722656 7.238281 -40.300781 8.40625 -43.90625 C 9.582031 -47.507812 11.335938 -50.9375 13.671875 -54.1875 C 16.003906 -57.445312 18.757812 -60.34375 21.9375 -62.875 C 25.113281 -65.40625 28.875 -67.421875 33.21875 -68.921875 C 37.5625 -70.421875 42.148438 -71.171875 46.984375 -71.171875 C 51.722656 -71.171875 56.210938 -70.050781 60.453125 -67.8125 C 62.566406 -66.726562 64.285156 -65.210938 65.609375 -63.265625 C 66.941406 -61.328125 67.609375 -59.109375 67.609375 -56.609375 C 67.609375 -54.109375 66.867188 -52.175781 65.390625 -50.8125 C 63.910156 -49.445312 62.238281 -48.765625 60.375 -48.765625 C 58.519531 -48.765625 56.984375 -49.253906 55.765625 -50.234375 C 54.546875 -51.222656 53.9375 -52.578125 53.9375 -54.296875 C 53.9375 -58.398438 56.570312 -60.453125 61.84375 -60.453125 Z M 61.84375 -60.453125 "/></g></g></g></svg>